<svg width="83" height="83" viewBox="0 0 83 83" fill="none" xmlns="http://www.w3.org/2000/svg">
<path fill-rule="evenodd" clip-rule="evenodd" d="M41.5 83C64.4198 83 83 64.4198 83 41.5C83 18.5802 64.4198 0 41.5 0C18.5802 0 0 18.5802 0 41.5C0 64.4198 18.5802 83 41.5 83Z" fill="#3794FC"/>
<path fill-rule="evenodd" clip-rule="evenodd" d="M41.9983 19C48.1463 19 53.9184 21.3982 58.2643 25.742C62.6102 30.0858 65 35.8744 65 42.0096C65 48.1449 62.6102 53.9238 58.2643 58.2676C53.9184 62.6114 48.1463 65 41.9983 65C38.1824 65 34.4339 64.0561 31.0998 62.2647C28.6233 63.9694 25.6553 64.9422 22.8319 64.9422C22.2634 64.9422 21.7141 64.8941 21.2034 64.817C20.2687 64.6725 19.5556 63.9502 19.4111 63.0159C19.2761 62.0913 19.7483 61.1859 20.5867 60.7718C21.9647 60.0976 23.1788 58.6914 24.2099 56.5821C16.7418 47.5092 17.3489 34.1214 25.7324 25.742C30.0783 21.3982 35.8504 19 41.9983 19ZM41.9984 62.3899C47.4428 62.3899 52.5693 60.2709 56.4238 56.4183C64.3833 48.4724 64.3833 35.5276 56.4238 27.5624C52.5693 23.7098 47.4428 21.5909 41.9984 21.5909C36.5539 21.5909 31.4274 23.7098 27.5729 27.5624C19.9603 35.1713 19.5845 47.4418 26.7153 55.4937C27.0526 55.879 27.1393 56.4183 26.9369 56.8807C25.848 59.3752 24.5472 61.1667 22.9957 62.3224C24.2966 62.2936 27.2646 61.9565 30.2133 59.6738C30.4445 59.5004 30.7336 59.4041 31.0131 59.4041C31.2347 59.4041 31.466 59.4715 31.6683 59.5871C34.7808 61.4171 38.3559 62.3899 41.9984 62.3899Z" fill="white"/>
<path d="M51.6916 34H32.3084C31.5815 34 31 34.6667 31 35.5C31 36.3333 31.5815 37 32.3084 37H51.6916C52.4185 37 53 36.3333 53 35.5C53 34.6667 52.4088 34 51.6916 34Z" fill="white"/>
<path d="M51.6916 40H32.3084C31.5815 40 31 40.6667 31 41.5C31 42.3333 31.5815 43 32.3084 43H51.6916C52.4185 43 53 42.3333 53 41.5C53 40.6667 52.4088 40 51.6916 40Z" fill="white"/>
<path d="M51.6916 47H32.3084C31.5815 47 31 47.6667 31 48.5C31 49.3333 31.5815 50 32.3084 50H51.6916C52.4185 50 53 49.3333 53 48.5C53 47.6667 52.4088 47 51.6916 47Z" fill="white"/>
</svg>
