<svg width="14" height="14" viewBox="0 0 14 14" fill="none" xmlns="http://www.w3.org/2000/svg">
<path fill-rule="evenodd" clip-rule="evenodd" d="M6.99648 0C8.86724 0 10.6226 0.728118 11.9457 2.05116C13.2689 3.37421 14 5.12939 14 7C14 8.87061 13.2718 10.6258 11.9487 11.9488C10.5989 13.2985 8.80508 14 6.99352 14C5.86574 14 4.72907 13.7277 3.69009 13.1683C2.75767 13.8402 1.84596 13.9852 1.22731 13.9852C0.996425 13.9852 0.806981 13.9645 0.673778 13.9438C0.389611 13.8994 0.170566 13.6774 0.126165 13.3932C0.0817645 13.1091 0.226808 12.8338 0.484334 12.7066C1.02011 12.4431 1.38123 11.9163 1.6062 11.4634C-0.687853 8.7019 -0.510249 4.60846 2.04725 2.05116C3.3704 0.728118 5.12572 0 6.99648 0ZM3.85585 12.3484C6.28903 13.778 9.38229 13.3814 11.3803 11.3835C13.7987 8.96533 13.7987 5.03467 11.3774 2.61649C8.96197 0.198309 5.02804 0.198309 2.60966 2.61649C0.294889 4.93108 0.182407 8.66047 2.34918 11.1082C2.40542 11.1734 2.43798 11.2533 2.44686 11.3332C2.46758 11.4161 2.46166 11.5049 2.42614 11.5907C2.20413 12.0968 1.82524 12.748 1.22435 13.186H1.22731C1.74828 13.186 2.53566 13.0558 3.33784 12.4342C3.34672 12.4254 3.35856 12.4165 3.3704 12.4106C3.49768 12.2833 3.69601 12.2537 3.85585 12.3484Z" fill="#F6F9FC"/>
<rect x="5" y="8" width="4" height="1" fill="#F6F9FC"/>
<rect x="5" y="5" width="4" height="1" fill="#F6F9FC"/>
</svg>
