<svg width="83" height="83" viewBox="0 0 83 83" fill="none" xmlns="http://www.w3.org/2000/svg">
<path fill-rule="evenodd" clip-rule="evenodd" d="M41.5 83C64.4198 83 83 64.4198 83 41.5C83 18.5802 64.4198 0 41.5 0C18.5802 0 0 18.5802 0 41.5C0 64.4198 18.5802 83 41.5 83Z" fill="#3794FC"/>
<path d="M34.3738 37.5787C33.8754 38.106 33.8754 38.9516 34.3738 39.4789L41.1067 46.6021C41.3512 46.8607 41.6803 47 42 47C42.3197 47 42.6488 46.8707 42.8933 46.6021L49.6262 39.4789C50.1246 38.9516 50.1246 38.106 49.6262 37.5787C49.1278 37.0515 48.3285 37.0515 47.8301 37.5787L43.2695 42.4038V19.3431C43.2695 18.5969 42.7053 18 42 18C41.2947 18 40.7305 18.5969 40.7305 19.3431V42.4038L36.1699 37.5787C35.6715 37.0515 34.8628 37.0515 34.3738 37.5787Z" fill="white"/>
<path fill-rule="evenodd" clip-rule="evenodd" d="M58.3831 31.0726L62.9514 47.9569C62.9903 48.0661 63 48.1853 63 48.3144V55.3263C63 60.6598 58.7525 65 53.533 65H29.467C24.2475 65 20 60.6598 20 55.3263V48.2846C20 48.1654 20.0194 48.0463 20.0486 47.9271L24.6169 31.0428C24.7141 30.6555 24.9862 30.3476 25.3361 30.1788L25.4625 30.1192C25.6374 30.0397 25.8221 30 26.0068 30H34.2491C34.9781 30 35.5613 30.5959 35.5613 31.3408C35.5613 32.0857 34.9781 32.6816 34.2491 32.6816H26.901L23.0228 46.9935H32.83C33.559 46.9935 34.1422 47.5894 34.1422 48.3343V49.546C34.1422 51.3238 35.5515 52.7639 37.2914 52.7639H45.3004C47.0402 52.7639 48.4496 51.3238 48.4496 49.546V48.3343C48.4496 47.5894 49.0328 46.9935 49.7618 46.9935H59.9674L56.1087 32.7114H48.7606C48.0316 32.7114 47.4485 32.1155 47.4485 31.3706C47.4485 30.6257 48.0316 30.0298 48.7606 30.0298H56.9932C57.1779 30.0298 57.3626 30.0695 57.5375 30.149L57.6639 30.2086C58.0138 30.3774 58.2762 30.6853 58.3831 31.0726ZM53.533 62.3184C57.3042 62.3184 60.3757 59.1799 60.3757 55.3263H60.3951V49.6751H51.0934C51.0253 52.8632 48.4593 55.4356 45.3198 55.4356H37.3108C34.1713 55.4356 31.6053 52.8632 31.5373 49.6751H22.6243V55.3263C22.6243 59.1799 25.6958 62.3184 29.467 62.3184H53.533Z" fill="white"/>
</svg>
