<svg width="83" height="83" viewBox="0 0 83 83" fill="none" xmlns="http://www.w3.org/2000/svg">
<path fill-rule="evenodd" clip-rule="evenodd" d="M41.5 83C64.4198 83 83 64.4198 83 41.5C83 18.5802 64.4198 0 41.5 0C18.5802 0 0 18.5802 0 41.5C0 64.4198 18.5802 83 41.5 83Z" fill="#3794FC"/>
<path fill-rule="evenodd" clip-rule="evenodd" d="M66 42.2177C66 35.7486 63.5034 29.6631 58.9726 25.0911C54.4418 20.5192 48.411 18 42 18C35.589 18 29.5582 20.5192 25.0274 25.0911C20.4966 29.6631 18 35.7486 18 42.2177V53.6838C18 60.1633 23.2295 65.4402 29.6507 65.4402C30.4212 65.4402 31.0377 64.8181 31.0377 64.0406V43.3374C31.0377 42.5598 30.4212 41.9378 29.6507 41.9378C26.0959 41.9378 22.911 43.5447 20.774 46.0847V42.2177C20.774 30.4095 30.2979 20.7991 42 20.7991C53.7021 20.7991 63.226 30.4095 63.226 42.2177C63.226 42.311 63.2363 42.4043 63.2569 42.4976C63.2363 42.5909 63.226 42.6842 63.226 42.7775V46.6445C61.089 44.1045 57.9041 42.4976 54.3493 42.4976C53.5788 42.4976 52.9623 43.1197 52.9623 43.8972V64.6004C52.9623 65.378 53.5788 66 54.3493 66C60.7705 66 66 60.7231 66 54.2436V42.7775C66 42.6842 65.9897 42.5909 65.9692 42.4976C65.9897 42.4043 66 42.311 66 42.2177ZM28.2534 44.8406V62.527C24.0205 61.8531 20.7637 58.1417 20.7637 53.6838C20.774 49.2259 24.0205 45.5145 28.2534 44.8406ZM63.2363 54.2436C63.2363 49.7857 59.9795 46.0743 55.7466 45.4004V63.0868C59.9795 62.413 63.226 58.7119 63.2363 54.2436Z" fill="white"/>
</svg>
