<svg width="21" height="22" viewBox="0 0 21 22" fill="none" xmlns="http://www.w3.org/2000/svg">
<path fill-rule="evenodd" clip-rule="evenodd" d="M18.9 0H2.1C0.945 0 0 0.99 0 2.2V19.8C0 21.01 0.945 22 2.1 22H18.9C20.055 22 21 21.01 21 19.8V2.2C21 0.99 20.055 0 18.9 0ZM10.5 6.6C12.81 6.6 14.7 8.58 14.7 11C14.7 13.42 12.81 15.4 10.5 15.4C8.19 15.4 6.3 13.42 6.3 11C6.3 8.58 8.19 6.6 10.5 6.6ZM2.625 19.8C2.31 19.8 2.1 19.58 2.1 19.25V9.9H4.305C4.2 10.23 4.2 10.67 4.2 11C4.2 14.63 7.035 17.6 10.5 17.6C13.965 17.6 16.8 14.63 16.8 11C16.8 10.67 16.8 10.23 16.695 9.9H18.9V19.25C18.9 19.58 18.69 19.8 18.375 19.8H2.625ZM18.9 4.95C18.9 5.28 18.69 5.5 18.375 5.5H16.275C15.96 5.5 15.75 5.28 15.75 4.95V2.75C15.75 2.42 15.96 2.2 16.275 2.2H18.375C18.69 2.2 18.9 2.42 18.9 2.75V4.95Z" fill="#C4CFDD"/>
</svg>
