<svg width="15" height="13" viewBox="0 0 15 13" fill="none" xmlns="http://www.w3.org/2000/svg">
<path d="M7.6919 5.61185C7.53215 5.76427 7.53215 6.00872 7.6919 6.16114C8.35198 6.79096 8.35198 7.81477 7.6919 8.44459L4.22572 11.7519C3.56564 12.3817 2.49263 12.3817 1.83255 11.7519L1.31112 11.2543C0.651038 10.6245 0.651038 9.6007 1.31112 8.97088L4.77729 5.66361C4.93704 5.51119 4.93704 5.26674 4.77729 5.11432C4.61755 4.96189 4.36135 4.96189 4.20161 5.11432L0.735432 8.42159C0.262224 8.8731 0 9.47416 0 10.1126C0 10.7511 0.25921 11.3521 0.735432 11.8036L1.25687 12.3012C1.74514 12.7671 2.38714 13 3.02914 13C3.67113 13 4.31313 12.7671 4.80141 12.3012L8.26758 8.99389C9.24414 8.0621 9.24414 6.54363 8.26758 5.61185C8.11085 5.45942 7.85164 5.45942 7.6919 5.61185Z" fill="#F6F9FC"/>
<path d="M14.2673 1.19626L13.7457 0.698778C12.7688 -0.232926 11.1769 -0.232926 10.2 0.698778L6.73266 4.00575C5.75578 4.93745 5.75578 6.45579 6.73266 7.38749C6.89246 7.5399 7.14874 7.5399 7.30854 7.38749C7.46834 7.23508 7.46834 6.99065 7.30854 6.83825C6.64824 6.20848 6.64824 5.18476 7.30854 4.555L10.7759 1.24802C11.4362 0.61826 12.5095 0.61826 13.1698 1.24802L13.6915 1.74551C14.3518 2.37527 14.3518 3.39899 13.6915 4.02876L10.2241 7.33573C10.0643 7.48814 10.0643 7.73257 10.2241 7.88497C10.3025 7.95974 10.408 8 10.5106 8C10.6131 8 10.7186 7.96262 10.797 7.88497L14.2643 4.578C14.7377 4.12653 15 3.52552 15 2.88713C15 2.24874 14.7407 1.64774 14.2673 1.19626Z" fill="#F6F9FC"/>
</svg>
