<svg width="15" height="15" viewBox="0 0 15 15" fill="none" xmlns="http://www.w3.org/2000/svg">
<path fill-rule="evenodd" clip-rule="evenodd" d="M9.3462 0.970913C10.6374 -0.323638 12.7372 -0.323638 14.0284 0.970913C14.6548 1.59421 15 2.42528 15 3.31069C15 4.1961 14.6548 5.02717 14.0284 5.65367L5.44384 14.2361C5.36394 14.3192 5.25208 14.3639 5.14021 14.3639C5.02835 14.3639 4.91649 14.316 4.83659 14.2361L1.37847 10.7775L0.934225 14.0634L3.20981 13.7566C3.44631 13.7246 3.66364 13.8908 3.6956 14.1274C3.72756 14.3639 3.56137 14.5813 3.32486 14.6132L0.486779 14.9968C0.467603 15 0.448427 15 0.42925 15C0.317389 15 0.205527 14.9521 0.125626 14.8721C0.0329412 14.7794 -0.0149994 14.6452 0.00417687 14.5109L0.640189 9.79942C0.652973 9.70673 0.694522 9.62042 0.761639 9.5533L9.3462 0.970913ZM10.9538 3.46732L9.5124 2.02573L1.6789 9.86016L3.12032 11.3017L10.9538 3.46732ZM5.14341 13.3219L3.73396 11.9123L11.5675 4.07783L12.9769 5.48745L5.14341 13.3219ZM10.1292 1.42161L13.5778 4.87054C13.9389 4.43264 14.1371 3.88924 14.1371 3.31069C14.1371 2.65543 13.8846 2.03852 13.4212 1.57823C12.9577 1.11795 12.3441 0.862234 11.6889 0.862234C11.1136 0.862234 10.5671 1.06041 10.1292 1.42161Z" fill="#F6F9FC"/>
</svg>
