<svg width="24" height="24" viewBox="0 0 24 24" fill="none" xmlns="http://www.w3.org/2000/svg">
<path fill-rule="evenodd" clip-rule="evenodd" d="M17.9587 16.9437L23.7924 22.7761C24.0692 23.0528 24.0692 23.5104 23.7924 23.7871C23.654 23.9308 23.4677 24 23.2868 24C23.1058 24 22.9195 23.9255 22.7811 23.7871L16.9474 17.9548C15.1484 19.5193 12.8011 20.4665 10.2355 20.4665C4.59348 20.4665 0 15.8741 0 10.2333C0 4.59246 4.58816 0 10.2355 0C15.8776 0 20.4711 4.58714 20.4711 10.2333C20.4711 12.7982 19.5236 15.145 17.9587 16.9437ZM10.2302 1.43681C5.38124 1.43681 1.4318 5.38004 1.4318 10.2333C1.4318 15.0865 5.38124 19.035 10.2302 19.035C15.0845 19.035 19.0286 15.0812 19.0286 10.2333C19.0286 5.38537 15.0845 1.43681 10.2302 1.43681Z" fill="#97A4BA"/>
</svg>
