<svg width="21" height="22" viewBox="0 0 21 22" fill="none" xmlns="http://www.w3.org/2000/svg">
<path fill-rule="evenodd" clip-rule="evenodd" d="M18.9 0H2.1C0.945 0 0 0.99 0 2.2V19.8C0 21.01 0.945 22 2.1 22H18.9C20.055 22 21 21.01 21 19.8V2.2C21 0.99 20.055 0 18.9 0ZM16.485 8.03C16.38 13.09 13.335 16.61 8.715 16.83C6.825 16.94 5.46 16.28 4.2 15.51C5.565 15.73 7.35 15.18 8.295 14.3C6.93 14.19 6.09 13.42 5.67 12.21C6.09 12.32 6.51 12.21 6.825 12.21C5.565 11.77 4.725 11 4.62 9.24C4.935 9.46 5.355 9.57 5.775 9.57C4.83 9.02 4.2 6.93 4.935 5.61C6.3 7.15 7.98 8.47 10.71 8.69C9.975 5.61 13.965 3.96 15.54 6.05C16.275 5.94 16.8 5.61 17.325 5.39C17.115 6.16 16.695 6.6 16.17 7.04C16.695 6.93 17.22 6.82 17.64 6.6C17.535 7.15 17.01 7.59 16.485 8.03Z" fill="#C4CFDD"/>
</svg>
