<svg width="22" height="22" viewBox="0 0 22 22" fill="none" xmlns="http://www.w3.org/2000/svg">
<path fill-rule="evenodd" clip-rule="evenodd" d="M17.875 0H4.12499C1.84663 0 0 1.84663 0 4.12499V17.875C0 20.1534 1.84663 22 4.12499 22H17.875C20.1534 22 22 20.1534 22 17.875V4.12499C22 1.84663 20.1534 0 17.875 0ZM17.7582 13.4626C17.6839 14.3784 16.9882 15.5471 16.0161 15.7162C12.9017 15.9583 9.21114 15.928 5.98542 15.7162C4.97891 15.5897 4.31755 14.377 4.24331 13.4626C4.08657 11.5404 4.08657 10.4459 4.24331 8.52361C4.31755 7.60925 4.99544 6.40334 5.98542 6.29337C9.17407 6.02522 12.8852 6.08298 16.0161 6.29337C17.1353 6.3346 17.6839 7.48824 17.7582 8.40399C17.9121 10.3262 17.9121 11.5404 17.7582 13.4626Z" fill="#C4CFDD"/>
<path fill-rule="evenodd" clip-rule="evenodd" d="M9.42856 13.619L13.619 10.9999L9.42856 8.38086V13.619Z" fill="#C4CFDD"/>
</svg>
